<?xml version="1.0" encoding="utf-8"?>
<!-- Generator: Adobe Illustrator 25.2.1, SVG Export Plug-In . SVG Version: 6.00 Build 0)  -->
<svg version="1.1" id="Layer_1" xmlns="http://www.w3.org/2000/svg" xmlns:xlink="http://www.w3.org/1999/xlink" x="0px" y="0px"
	 viewBox="0 0 42 43" style="enable-background:new 0 0 42 43;" xml:space="preserve">
<style type="text/css">
	.st0{filter:url(#filter-2);}
	.st1{fill-rule:evenodd;clip-rule:evenodd;}
	.st2{fill-rule:evenodd;clip-rule:evenodd;fill:#FFFFFF;}
	.st3{fill-rule:evenodd;clip-rule:evenodd;fill:#3A32D0;}
	.st4{fill-rule:evenodd;clip-rule:evenodd;fill:#5850EC;}
</style>
<filter  filterUnits="objectBoundingBox" height="117.5%" id="filter-2" width="115.0%" x="-7.5%" y="-5.0%">
	<feMorphology  in="SourceAlpha" operator="erode" radius="1" result="shadowSpreadOuter1"></feMorphology>
	<feOffset  dx="0" dy="2" in="shadowSpreadOuter1" result="shadowOffsetOuter1"></feOffset>
	<feGaussianBlur  in="shadowOffsetOuter1" result="shadowBlurOuter1" stdDeviation="1"></feGaussianBlur>
	
		<feColorMatrix  in="shadowBlurOuter1" result="shadowMatrixOuter1" type="matrix" values="0 0 0 0 0   0 0 0 0 0   0 0 0 0 0  0 0 0 0.25 0">
		</feColorMatrix>
	<feOffset  dx="0" dy="0" in="SourceAlpha" result="shadowOffsetOuter2"></feOffset>
	<feGaussianBlur  in="shadowOffsetOuter2" result="shadowBlurOuter2" stdDeviation="0.5"></feGaussianBlur>
	
		<feColorMatrix  in="shadowBlurOuter2" result="shadowMatrixOuter2" type="matrix" values="0 0 0 0 0   0 0 0 0 0   0 0 0 0 0  0 0 0 0.31 0">
		</feColorMatrix>
	<feMerge>
		<feMergeNode  in="shadowMatrixOuter1"></feMergeNode>
		<feMergeNode  in="shadowMatrixOuter2"></feMergeNode>
	</feMerge>
</filter>
<desc>Created with Sketch.</desc>
<g id="Landing">
	<g id="Landing-page" transform="translate(-31.000000, -11.000000)">
		<g id="topbar">
			<g id="left" transform="translate(32.000000, 12.000000)">
				<g id="Logo">
					<g id="Oval">
						<g class="st0">
							<circle id="path-1_2_" class="st1" cx="20" cy="20" r="20"/>
						</g>
						<g>
							<circle id="path-1_1_" class="st2" cx="20" cy="20" r="20"/>
						</g>
					</g>
					<polygon id="Path" class="st3" points="19.2,20.4 15.1,27.9 12.6,32.5 12.5,32.5 11,29.7 10,27.9 10,27.9 14.1,20.4 10,12.9 
						10,12.9 11,11.1 12.5,8.3 12.6,8.3 15.1,12.9 					"/>
					<polygon id="Path_1_" class="st4" points="33.3,20.4 26.4,32.5 12.6,32.5 11,29.7 10,27.9 23.8,27.9 28.1,20.4 23.8,12.9 
						10,12.9 11,11.1 12.6,8.3 26.4,8.3 					"/>
				</g>
			</g>
		</g>
	</g>
</g>
</svg>
